<svg fill="none" height="17" viewBox="0 0 17 17" width="17" xmlns="http://www.w3.org/2000/svg"><path clip-rule="evenodd" d="m.146522.853553c-.195262-.195262-.195262-.511844 0-.707106.195262-.1952625.511845-.1952626.707107 0l7.424581 7.424583 7.42459-7.42458c.1953-.1952624.5118-.1952625.7071 0 .1953.195262.1953.511844 0 .707106l-7.42458 7.424584 7.42468 7.42466c.1952.1953.1952.5118 0 .7071-.1953.1953-.5119.1953-.7071 0l-7.42469-7.42465-7.424657 7.42465c-.195262.1953-.511844.1953-.707106 0-.1952625-.1953-.1952626-.5118 0-.7071l7.424663-7.42466z" fill="#fff" fill-rule="evenodd"/></svg>