<svg height="26" viewBox="0 0 27 26" width="27" xmlns="http://www.w3.org/2000/svg"><path d="m19.475 15.1271c-1.1088-1.0242-1.188-1.0242-.2376-2.206 1.188-1.4968 2.7721-3.38761 1.3464-3.38761h-2.6137c-.4752 0-.5544.31513-.7128.70901-.6336 1.4969-1.9008 3.4665-2.3761 3.1513-.4752-.3151-.2376-1.4968-.2376-3.3876.0792-.23636 0-.47271-.1584-.63028-.1584-.15756-.396-.31513-.6336-.31513-.396-.07878-.792-.15756-1.188-.15756-1.5049 0-2.5345.63026-1.9801.70904 1.0296.15757.9504 2.36353.7128 3.30883-.396 1.6545-1.98006-1.2605-2.69288-2.7573-.07921-.39396-.39602-.63031-.79203-.63031h-2.05927c-.31681 0-.55442.07878-.55442.31513 0 .39388 1.98007 4.25428 3.80173 6.22388 1.82167 1.8907 3.64337 1.7332 4.91057 1.7332.1584 0 .3168-.0788.396-.1576s.1584-.2363.1584-.3939c0-1.2605.4752-1.8908 1.3465-1.0242.9504.9454 1.188 1.5757 2.3761 1.5757h2.1384c.5545 0 .7129-.1576.7129-.3939.0792-.5515-.8713-1.5757-1.6633-2.2847zm-5.6234-15.12631084c7.3659.15756484 13.2269 6.06626084 13.1477 13.23551084-.0792 7.1692-6.1779 12.8415-13.5437 12.7628-7.44508-.0788-13.3852875-5.83-13.3852875-12.9992.0792025-7.24798 6.2570175-13.0778935 13.7812875-12.99911084z"/></svg>