<svg height="26" viewBox="0 0 27 26" width="27" xmlns="http://www.w3.org/2000/svg"><path d="m13.8512 10.957c1.0156 0 1.8056-.8357 1.7868-1.7457.0188-.91-.7523-1.76428-1.768-1.76428-.978 0-1.7867.78-1.7867 1.74571 0 .96567.7899 1.76427 1.7679 1.76427z"/><path d="m13.701.00012207c-7.25987 0-13.1656 5.83139793-13.1656 12.99997793 0 7.1871 5.90573 12.9999 13.1656 12.9999 7.2787 0 13.1657-5.8314 13.1657-12.9999.0188-7.16858-5.887-12.99997793-13.1657-12.99997793zm.1881 4.92140793c2.3698 0 4.3259 1.93142 4.3071 4.28998 0 2.37709-1.9749 4.28999-4.3823 4.25279-2.3698-.0371-4.26945-1.9499-4.26945-4.27137 0-2.35856 1.93725-4.2714 4.34465-4.2714zm4.8337 10.02847c0 .0372-.0188.0558-.0188.0929-.0565.3714-.2445.6686-.5643.8729-.2069.13-.4326.26-.6583.3714-.5642.2786-1.1661.5014-1.7867.65-.0752.0186-.0752.0186-.0188.0743.3385.3343.6959.6871 1.0344 1.0214.4326.4271.884.8728 1.3166 1.3.6206.6128.4514 1.6343-.3386 2.0057-.1316.0743-.2821.0928-.4325.13-.0753 0-.1693 0-.2446 0-.0188 0-.0376 0-.0376-.0186-.3009-.0371-.5454-.1857-.7711-.39-.7523-.7428-1.5235-1.5043-2.2758-2.2471-.0564-.0557-.0564-.0557-.1128 0-.7712.7614-1.5235 1.5043-2.2946 2.2657-.1317.13-.2633.2228-.4326.2971-.1128.0557-.2445.0743-.3573.0929-.0753 0-.1505 0-.2445 0-.0377 0-.0565-.0186-.0941-.0186-.5078-.0928-.84635-.3714-.99681-.8543-.15047-.4828-.03762-.91.31974-1.2628.31977-.3157.62067-.6129.94037-.9286.4702-.4643.9404-.9286 1.3918-1.3743.0564-.0557.0564-.0557-.0188-.0742-.0188 0-.0564-.0186-.0752-.0186-.8464-.2043-1.6175-.5386-2.35102-.9843-.43259-.2786-.63948-.6871-.58305-1.1886.09404-.9285 1.14727-1.43 1.93727-.9285.1504.0928.2821.1671.4513.2414.8652.4271 1.7868.6129 2.746.5571.4702-.0185.9404-.1114 1.4106-.26.4514-.1485.8464-.3528 1.2602-.5757.6771-.39 1.561-.0743 1.8243.65.0377.1115.0565.2043.0753.3157z"/></svg>